<svg xmlns:dc="http://purl.org/dc/elements/1.1/" xmlns:cc="http://creativecommons.org/ns#" xmlns:rdf="http://www.w3.org/1999/02/22-rdf-syntax-ns#" xmlns:svg="http://www.w3.org/2000/svg" xmlns="http://www.w3.org/2000/svg" xmlns:xlink="http://www.w3.org/1999/xlink" id="svg40691" viewBox="0 0 1024 768" height="768px" width="1024px" version="1.1">
  <metadata id="metadata40697">
    <rdf:rdf>
      <cc:work rdf:about="">
        <dc:format>image/svg+xml</dc:format>
        <dc:type rdf:resource="http://purl.org/dc/dcmitype/StillImage"></dc:type>
      </cc:work>
    </rdf:rdf>
  </metadata>
  <defs id="defs40695"></defs>
  <linearGradient spreadMethod="pad" y2="30%" x2="-10%" y1="120%" x1="30%" id="3d_gradient2-logo-3b363c47-fbe5-4ffb-8132-09205d59672c">
    <stop id="stop40672" stop-opacity="1" stop-color="#ffffff" offset="0%"></stop>
    <stop id="stop40674" stop-opacity="1" stop-color="#000000" offset="100%"></stop>
  </linearGradient>
  <linearGradient gradientTransform="rotate(-30)" spreadMethod="pad" y2="30%" x2="-10%" y1="120%" x1="30%" id="3d_gradient3-logo-3b363c47-fbe5-4ffb-8132-09205d59672c">
    <stop id="stop40677" stop-opacity="1" stop-color="#ffffff" offset="0%"></stop>
    <stop id="stop40679" stop-opacity="1" stop-color="#cccccc" offset="50%"></stop>
    <stop id="stop40681" stop-opacity="1" stop-color="#000000" offset="100%"></stop>
  </linearGradient>
  <g id="logo-group">
    <image xlink:href="" id="container" x="272" y="144" width="480" height="480" style="display: none;" transform="translate(0 0)"></image>
    <g id="logo-center" transform="translate(-1.1368683772161603e-13 0)">
      <image xlink:href="" id="icon_container" style="display: none;" x="0" y="0"></image>
      <g id="slogan" style="font-style:normal;font-weight:400;font-size:32px;line-height:1;font-family:Montserrat;font-variant-ligatures:none;text-align:center;text-anchor:middle" transform="translate(0 0)"></g>
      <g id="title" style="font-style:oblique;font-weight:700;font-size:72px;line-height:1;font-family:Averta;font-variant-ligatures:none;text-align:center;text-anchor:middle" transform="translate(0 0)">
        <path id="path40700" style="font-style:oblique;font-weight:700;font-size:72px;line-height:1;font-family:Averta;font-variant-ligatures:none;text-align:center;text-anchor:middle" d="M 462.71094,-51.12 456.44694,0 h 17.424 c 13.896,0 19.728,-6.336 19.728,-16.632 0,-5.472 -2.808,-9 -7.2,-10.728 v -0.144 c 5.112,-2.592 7.848,-8.136 7.848,-13.032 0,-7.128 -4.536,-10.584 -13.536,-10.584 z m 13.176,20.592 h -4.464 l 1.368,-10.44 h 5.04 c 3.168,0 4.752,1.08 4.752,3.672 0,4.032 -2.736,6.768 -6.696,6.768 z m -1.44,20.52 h -5.472 l 1.44,-11.592 h 6.048 c 3.744,0 5.472,1.512 5.472,4.176 0,4.32 -2.232,7.416 -7.488,7.416 z" stroke-width="0" stroke-linejoin="miter" stroke-miterlimit="2" fill="#cc6633" stroke="#ffffff" transform="translate(0 399.72267999999997) translate(252.07816625000004 -135.5656) scale(4.63) translate(-456.44694 51.12)"></path>
        <path id="path40702" style="font-style:oblique;font-weight:700;font-size:72px;line-height:1;font-family:Averta;font-variant-ligatures:none;text-align:center;text-anchor:middle" d="m 529.51569,-26.136 c 0.072,-6.624 -6.336,-9.72 -12.024,-9.72 -11.88,0 -19.296,9.792 -19.296,21.744 -0.072,9.144 5.832,14.76 14.688,14.76 6.912,0 11.592,-2.592 15.336,-7.704 l -8.064,-4.752 c -1.944,2.592 -4.032,3.528 -6.408,3.528 -2.088,0 -4.392,-1.296 -5.04,-4.464 10.368,-1.08 20.664,-4.464 20.808,-13.392 z m -10.368,1.512 c -0.072,3.456 -4.824,4.824 -10.08,5.4 1.224,-4.896 4.392,-7.632 7.488,-7.632 1.656,0 2.664,0.792 2.592,2.232 z" stroke-width="0" stroke-linejoin="miter" stroke-miterlimit="2" fill="#cc6633" stroke="#ffffff" transform="translate(0 399.72267999999997) translate(445.37186925000003 -64.89328) scale(4.63) translate(-498.19504 35.856)"></path>
        <path id="path40704" style="font-style:oblique;font-weight:700;font-size:72px;line-height:1;font-family:Averta;font-variant-ligatures:none;text-align:center;text-anchor:middle" d="m 543.88419,0.648 c 3.96,0 7.488,-2.16 10.08,-5.904 l 0.216,0.072 -0.648,5.184 h 10.872 l 4.32,-35.208 h -10.872 l -0.288,2.448 h -0.216 c -1.872,-1.944 -4.608,-3.096 -8.28,-3.096 -9.216,0 -16.632,9.576 -16.632,22.104 0,8.136 3.888,14.4 11.448,14.4 z m 3.456,-9.576 c -2.448,0 -4.032,-2.232 -4.032,-5.616 0,-5.256 2.88,-11.664 7.632,-11.664 2.232,0 4.248,0.864 5.832,2.52 l -0.144,1.008 c -1.224,8.856 -5.544,13.752 -9.288,13.752 z" stroke-width="0" stroke-linejoin="miter" stroke-miterlimit="2" fill="#cc6633" stroke="#ffffff" transform="translate(0 399.72267999999997) translate(603.9083937500001 -64.89328) scale(4.63) translate(-532.43619 35.856)"></path>
      </g>
      <image xlink:href="" id="icon" style="display: none;" x="0" y="0"></image>
    </g>
  </g>
</svg>
